<mxfile host="app.diagrams.net" modified="2023-07-24T15:52:31.931Z" agent="Mozilla/5.0 (Windows NT 10.0; Win64; x64) AppleWebKit/537.36 (KHTML, like Gecko) Chrome/115.0.0.0 Safari/537.36 Edg/115.0.1901.183" etag="dhL-ynqMNSSgK46zgwZq" version="21.6.5" type="github">
  <diagram id="R2lEEEUBdFMjLlhIrx00" name="Page-1">
    <mxGraphModel dx="2289" dy="1418" grid="1" gridSize="10" guides="1" tooltips="1" connect="1" arrows="1" fold="1" page="1" pageScale="1" pageWidth="1700" pageHeight="1100" math="0" shadow="1" extFonts="Permanent Marker^https://fonts.googleapis.com/css?family=Permanent+Marker">
      <root>
        <mxCell id="0" />
        <mxCell id="1" parent="0" />
        <mxCell id="K63849EDpW4qTDiHlSB1-36" value="Product" style="swimlane;childLayout=stackLayout;horizontal=1;startSize=50;horizontalStack=0;rounded=1;fontSize=14;fontStyle=0;strokeWidth=2;resizeParent=0;resizeLast=1;shadow=0;dashed=0;align=center;arcSize=4;whiteSpace=wrap;html=1;" vertex="1" parent="1">
          <mxGeometry x="100" y="475" width="200" height="205" as="geometry" />
        </mxCell>
        <mxCell id="K63849EDpW4qTDiHlSB1-37" value="&lt;b&gt;&lt;u&gt;product_id INT NOT NULL (PK)&lt;br&gt;&lt;/u&gt;&lt;/b&gt;&lt;br&gt;title VARCHAR(25) NOT NULL&lt;br&gt;&lt;b&gt;&lt;u&gt;&lt;br&gt;&lt;/u&gt;&lt;/b&gt;description VARCHAR(200)&lt;br&gt;&lt;br&gt;price INT NOT NULL&lt;br&gt;&lt;br&gt;inventory VARCHAR (" style="align=left;strokeColor=none;fillColor=none;spacingLeft=4;fontSize=12;verticalAlign=top;resizable=0;rotatable=0;part=1;html=1;shadow=0;" vertex="1" parent="K63849EDpW4qTDiHlSB1-36">
          <mxGeometry y="50" width="200" height="155" as="geometry" />
        </mxCell>
        <mxCell id="K63849EDpW4qTDiHlSB1-38" value="Collection" style="swimlane;childLayout=stackLayout;horizontal=1;startSize=50;horizontalStack=0;rounded=1;fontSize=14;fontStyle=0;strokeWidth=2;resizeParent=0;resizeLast=1;shadow=0;dashed=0;align=center;arcSize=4;whiteSpace=wrap;html=1;" vertex="1" parent="1">
          <mxGeometry x="460" y="480" width="200" height="150" as="geometry" />
        </mxCell>
        <mxCell id="K63849EDpW4qTDiHlSB1-39" value="&lt;b&gt;&lt;u&gt;collection_id INT NOT NULL (PK)&lt;br&gt;&lt;/u&gt;&lt;/b&gt;&lt;br&gt;title VARCHAR(25) NOT NULL&lt;br&gt;&lt;b&gt;&lt;u&gt;&lt;br&gt;&lt;/u&gt;&lt;/b&gt;" style="align=left;strokeColor=none;fillColor=none;spacingLeft=4;fontSize=12;verticalAlign=top;resizable=0;rotatable=0;part=1;html=1;shadow=0;" vertex="1" parent="K63849EDpW4qTDiHlSB1-38">
          <mxGeometry y="50" width="200" height="100" as="geometry" />
        </mxCell>
        <mxCell id="K63849EDpW4qTDiHlSB1-40" value="" style="endArrow=none;html=1;rounded=0;shadow=0;" edge="1" parent="1" source="K63849EDpW4qTDiHlSB1-44">
          <mxGeometry relative="1" as="geometry">
            <mxPoint x="300" y="540" as="sourcePoint" />
            <mxPoint x="460" y="540" as="targetPoint" />
          </mxGeometry>
        </mxCell>
        <mxCell id="K63849EDpW4qTDiHlSB1-42" value="1" style="text;html=1;align=center;verticalAlign=middle;resizable=0;points=[];autosize=1;strokeColor=none;fillColor=none;shadow=0;" vertex="1" parent="1">
          <mxGeometry x="430" y="508" width="30" height="30" as="geometry" />
        </mxCell>
        <mxCell id="K63849EDpW4qTDiHlSB1-45" value="" style="endArrow=none;html=1;rounded=0;shadow=0;" edge="1" parent="1" target="K63849EDpW4qTDiHlSB1-44">
          <mxGeometry relative="1" as="geometry">
            <mxPoint x="300" y="540" as="sourcePoint" />
            <mxPoint x="460" y="540" as="targetPoint" />
          </mxGeometry>
        </mxCell>
        <mxCell id="K63849EDpW4qTDiHlSB1-44" value="Products" style="shape=rhombus;perimeter=rhombusPerimeter;whiteSpace=wrap;html=1;align=center;shadow=0;" vertex="1" parent="1">
          <mxGeometry x="340" y="508" width="75" height="60" as="geometry" />
        </mxCell>
        <mxCell id="K63849EDpW4qTDiHlSB1-46" value="" style="endArrow=none;html=1;strokeColor=default;curved=1;entryX=0.36;entryY=1.031;entryDx=0;entryDy=0;entryPerimeter=0;exitX=1.004;exitY=0.644;exitDx=0;exitDy=0;exitPerimeter=0;shadow=0;" edge="1" parent="1" source="K63849EDpW4qTDiHlSB1-37" target="K63849EDpW4qTDiHlSB1-39">
          <mxGeometry relative="1" as="geometry">
            <mxPoint x="340" y="660" as="sourcePoint" />
            <mxPoint x="500" y="660" as="targetPoint" />
            <Array as="points">
              <mxPoint x="420" y="690" />
            </Array>
          </mxGeometry>
        </mxCell>
        <mxCell id="K63849EDpW4qTDiHlSB1-47" value="featured_products" style="shape=rhombus;perimeter=rhombusPerimeter;whiteSpace=wrap;html=1;align=center;rotation=5;shadow=0;" vertex="1" parent="1">
          <mxGeometry x="345" y="620" width="120" height="60" as="geometry" />
        </mxCell>
        <mxCell id="K63849EDpW4qTDiHlSB1-49" value="0" style="text;html=1;align=center;verticalAlign=middle;resizable=0;points=[];autosize=1;strokeColor=none;fillColor=none;shadow=0;" vertex="1" parent="1">
          <mxGeometry x="300" y="600" width="30" height="30" as="geometry" />
        </mxCell>
        <mxCell id="K63849EDpW4qTDiHlSB1-50" value="1" style="text;html=1;align=center;verticalAlign=middle;resizable=0;points=[];autosize=1;strokeColor=none;fillColor=none;shadow=0;" vertex="1" parent="1">
          <mxGeometry x="505" y="638" width="30" height="30" as="geometry" />
        </mxCell>
        <mxCell id="K63849EDpW4qTDiHlSB1-51" value="Cart" style="swimlane;childLayout=stackLayout;horizontal=1;startSize=50;horizontalStack=0;rounded=1;fontSize=14;fontStyle=0;strokeWidth=2;resizeParent=0;resizeLast=1;shadow=0;dashed=0;align=center;arcSize=4;whiteSpace=wrap;html=1;" vertex="1" parent="1">
          <mxGeometry x="100" y="140" width="200" height="150" as="geometry" />
        </mxCell>
        <mxCell id="K63849EDpW4qTDiHlSB1-52" value="&lt;b&gt;&lt;u&gt;cart_id INT NOT NULL (PK)&lt;br&gt;&lt;/u&gt;&lt;/b&gt;&lt;br&gt;title VARCHAR(25) NOT NULL&lt;br&gt;&lt;br&gt;created_at DATE NOT NULL&lt;br&gt;&lt;b&gt;&lt;u&gt;&lt;br&gt;&lt;/u&gt;&lt;/b&gt;" style="align=left;strokeColor=none;fillColor=none;spacingLeft=4;fontSize=12;verticalAlign=top;resizable=0;rotatable=0;part=1;html=1;shadow=0;" vertex="1" parent="K63849EDpW4qTDiHlSB1-51">
          <mxGeometry y="50" width="200" height="100" as="geometry" />
        </mxCell>
        <mxCell id="K63849EDpW4qTDiHlSB1-53" value="CartItem" style="swimlane;childLayout=stackLayout;horizontal=1;startSize=50;horizontalStack=0;rounded=1;fontSize=14;fontStyle=0;strokeWidth=2;resizeParent=0;resizeLast=1;shadow=0;dashed=0;align=center;arcSize=4;whiteSpace=wrap;html=1;" vertex="1" parent="1">
          <mxGeometry x="100" y="330" width="200" height="110" as="geometry" />
        </mxCell>
        <mxCell id="K63849EDpW4qTDiHlSB1-54" value="&lt;b&gt;&lt;u&gt;cart_item_id INT NOT NULL (PK)&lt;br&gt;&lt;/u&gt;&lt;/b&gt;&lt;br&gt;quantity INT NOT NULL&lt;br&gt;&lt;b&gt;&lt;u&gt;&lt;br&gt;&lt;/u&gt;&lt;/b&gt;" style="align=left;strokeColor=none;fillColor=none;spacingLeft=4;fontSize=12;verticalAlign=top;resizable=0;rotatable=0;part=1;html=1;shadow=0;" vertex="1" parent="K63849EDpW4qTDiHlSB1-53">
          <mxGeometry y="50" width="200" height="60" as="geometry" />
        </mxCell>
        <mxCell id="K63849EDpW4qTDiHlSB1-55" value="" style="endArrow=none;html=1;rounded=0;exitX=0.009;exitY=0.204;exitDx=0;exitDy=0;exitPerimeter=0;entryX=0;entryY=0;entryDx=0;entryDy=0;shadow=0;" edge="1" parent="1" source="K63849EDpW4qTDiHlSB1-52" target="K63849EDpW4qTDiHlSB1-54">
          <mxGeometry relative="1" as="geometry">
            <mxPoint x="40" y="210" as="sourcePoint" />
            <mxPoint x="40" y="380" as="targetPoint" />
            <Array as="points">
              <mxPoint x="40" y="210" />
              <mxPoint x="40" y="380" />
            </Array>
          </mxGeometry>
        </mxCell>
        <mxCell id="K63849EDpW4qTDiHlSB1-56" value="" style="endArrow=none;html=1;rounded=0;exitX=0.009;exitY=0.204;exitDx=0;exitDy=0;exitPerimeter=0;entryX=-0.004;entryY=0.119;entryDx=0;entryDy=0;entryPerimeter=0;shadow=0;" edge="1" parent="1" target="K63849EDpW4qTDiHlSB1-37">
          <mxGeometry relative="1" as="geometry">
            <mxPoint x="100" y="420" as="sourcePoint" />
            <mxPoint x="98" y="590" as="targetPoint" />
            <Array as="points">
              <mxPoint x="38" y="420" />
              <mxPoint x="38" y="543" />
            </Array>
          </mxGeometry>
        </mxCell>
        <mxCell id="K63849EDpW4qTDiHlSB1-57" value="1" style="text;html=1;align=center;verticalAlign=middle;resizable=0;points=[];autosize=1;strokeColor=none;fillColor=none;shadow=0;" vertex="1" parent="1">
          <mxGeometry x="65" y="180" width="30" height="30" as="geometry" />
        </mxCell>
        <mxCell id="K63849EDpW4qTDiHlSB1-58" value="m" style="text;html=1;align=center;verticalAlign=middle;resizable=0;points=[];autosize=1;strokeColor=none;fillColor=none;shadow=0;" vertex="1" parent="1">
          <mxGeometry x="65" y="350" width="30" height="30" as="geometry" />
        </mxCell>
        <mxCell id="K63849EDpW4qTDiHlSB1-59" value="m" style="text;html=1;align=center;verticalAlign=middle;resizable=0;points=[];autosize=1;strokeColor=none;fillColor=none;shadow=0;" vertex="1" parent="1">
          <mxGeometry x="305" y="508" width="30" height="30" as="geometry" />
        </mxCell>
        <mxCell id="K63849EDpW4qTDiHlSB1-60" value="m" style="text;html=1;align=center;verticalAlign=middle;resizable=0;points=[];autosize=1;strokeColor=none;fillColor=none;shadow=0;" vertex="1" parent="1">
          <mxGeometry x="65" y="418" width="30" height="30" as="geometry" />
        </mxCell>
        <mxCell id="K63849EDpW4qTDiHlSB1-61" value="1" style="text;html=1;align=center;verticalAlign=middle;resizable=0;points=[];autosize=1;strokeColor=none;fillColor=none;shadow=0;" vertex="1" parent="1">
          <mxGeometry x="65" y="518" width="30" height="30" as="geometry" />
        </mxCell>
        <mxCell id="K63849EDpW4qTDiHlSB1-62" value="Customer&amp;nbsp; &amp;nbsp; &amp;nbsp;" style="swimlane;childLayout=stackLayout;horizontal=1;startSize=50;horizontalStack=0;rounded=1;fontSize=14;fontStyle=0;strokeWidth=2;resizeParent=0;resizeLast=1;shadow=0;dashed=0;align=center;arcSize=4;whiteSpace=wrap;html=1;" vertex="1" parent="1">
          <mxGeometry x="920" y="110" width="200" height="190" as="geometry" />
        </mxCell>
        <mxCell id="K63849EDpW4qTDiHlSB1-63" value="&lt;b&gt;&lt;u&gt;customer_id INT NOT NULL (PK)&lt;br&gt;&lt;/u&gt;&lt;/b&gt;&lt;br&gt;name VARCHAR(25) NOT NULL&lt;br&gt;&lt;br&gt;email VARCHAR(25) NOT NULL&lt;br&gt;&lt;br&gt;pass VARCHAR(100) NOT NULL&lt;br&gt;&lt;br&gt;created_at DATE NOT NULL&lt;br&gt;&lt;b&gt;&lt;u&gt;&lt;br&gt;&lt;/u&gt;&lt;/b&gt;" style="align=left;strokeColor=none;fillColor=none;spacingLeft=4;fontSize=12;verticalAlign=top;resizable=0;rotatable=0;part=1;html=1;shadow=0;" vertex="1" parent="K63849EDpW4qTDiHlSB1-62">
          <mxGeometry y="50" width="200" height="140" as="geometry" />
        </mxCell>
        <mxCell id="K63849EDpW4qTDiHlSB1-64" value="Order" style="swimlane;childLayout=stackLayout;horizontal=1;startSize=50;horizontalStack=0;rounded=1;fontSize=14;fontStyle=0;strokeWidth=2;resizeParent=0;resizeLast=1;shadow=0;dashed=0;align=center;arcSize=4;whiteSpace=wrap;html=1;" vertex="1" parent="1">
          <mxGeometry x="600" y="110" width="200" height="112" as="geometry" />
        </mxCell>
        <mxCell id="K63849EDpW4qTDiHlSB1-65" value="&lt;b&gt;&lt;u&gt;order_id INT NOT NULL (PK)&lt;br&gt;&lt;/u&gt;&lt;/b&gt;&lt;br&gt;placed_at&amp;nbsp;" style="align=left;strokeColor=none;fillColor=none;spacingLeft=4;fontSize=12;verticalAlign=top;resizable=0;rotatable=0;part=1;html=1;shadow=0;" vertex="1" parent="K63849EDpW4qTDiHlSB1-64">
          <mxGeometry y="50" width="200" height="62" as="geometry" />
        </mxCell>
        <mxCell id="K63849EDpW4qTDiHlSB1-66" value="OrderItem" style="swimlane;childLayout=stackLayout;horizontal=1;startSize=50;horizontalStack=0;rounded=1;fontSize=14;fontStyle=0;strokeWidth=2;resizeParent=0;resizeLast=1;shadow=0;dashed=0;align=center;arcSize=4;whiteSpace=wrap;html=1;" vertex="1" parent="1">
          <mxGeometry x="380" y="250" width="200" height="112" as="geometry" />
        </mxCell>
        <mxCell id="K63849EDpW4qTDiHlSB1-67" value="&lt;b&gt;&lt;u&gt;order_item_id INT NOT NULL (PK)&lt;br&gt;&lt;/u&gt;&lt;/b&gt;&lt;br&gt;quantity INT NOT NULL" style="align=left;strokeColor=none;fillColor=none;spacingLeft=4;fontSize=12;verticalAlign=top;resizable=0;rotatable=0;part=1;html=1;shadow=0;" vertex="1" parent="K63849EDpW4qTDiHlSB1-66">
          <mxGeometry y="50" width="200" height="62" as="geometry" />
        </mxCell>
        <mxCell id="K63849EDpW4qTDiHlSB1-69" value="" style="endArrow=none;html=1;rounded=0;exitX=0.999;exitY=0.166;exitDx=0;exitDy=0;exitPerimeter=0;shadow=0;" edge="1" parent="1" source="K63849EDpW4qTDiHlSB1-65">
          <mxGeometry relative="1" as="geometry">
            <mxPoint x="760" y="170" as="sourcePoint" />
            <mxPoint x="920" y="170" as="targetPoint" />
          </mxGeometry>
        </mxCell>
        <mxCell id="K63849EDpW4qTDiHlSB1-70" value="" style="shape=rhombus;perimeter=rhombusPerimeter;whiteSpace=wrap;html=1;align=center;shadow=0;" vertex="1" parent="1">
          <mxGeometry x="820" y="140" width="75" height="60" as="geometry" />
        </mxCell>
        <mxCell id="K63849EDpW4qTDiHlSB1-71" value="1" style="text;html=1;align=center;verticalAlign=middle;resizable=0;points=[];autosize=1;strokeColor=none;fillColor=none;shadow=0;" vertex="1" parent="1">
          <mxGeometry x="890" y="140" width="30" height="30" as="geometry" />
        </mxCell>
        <mxCell id="K63849EDpW4qTDiHlSB1-72" value="m" style="text;html=1;align=center;verticalAlign=middle;resizable=0;points=[];autosize=1;strokeColor=none;fillColor=none;shadow=0;" vertex="1" parent="1">
          <mxGeometry x="800" y="140" width="30" height="30" as="geometry" />
        </mxCell>
        <mxCell id="K63849EDpW4qTDiHlSB1-73" value="" style="endArrow=none;html=1;rounded=0;exitX=0.75;exitY=0;exitDx=0;exitDy=0;" edge="1" parent="1" source="K63849EDpW4qTDiHlSB1-66">
          <mxGeometry relative="1" as="geometry">
            <mxPoint x="499.60000000000014" y="299.99599999999987" as="sourcePoint" />
            <mxPoint x="600" y="174.07999999999998" as="targetPoint" />
          </mxGeometry>
        </mxCell>
        <mxCell id="K63849EDpW4qTDiHlSB1-74" value="" style="endArrow=none;html=1;rounded=0;exitX=0.348;exitY=-0.047;exitDx=0;exitDy=0;exitPerimeter=0;" edge="1" parent="1">
          <mxGeometry relative="1" as="geometry">
            <mxPoint x="300.0000000000001" y="474.99599999999987" as="sourcePoint" />
            <mxPoint x="416" y="360" as="targetPoint" />
          </mxGeometry>
        </mxCell>
        <mxCell id="K63849EDpW4qTDiHlSB1-75" value="1" style="text;html=1;align=center;verticalAlign=middle;resizable=0;points=[];autosize=1;strokeColor=none;fillColor=none;" vertex="1" parent="1">
          <mxGeometry x="565" y="148" width="30" height="30" as="geometry" />
        </mxCell>
        <mxCell id="K63849EDpW4qTDiHlSB1-76" value="m" style="text;html=1;align=center;verticalAlign=middle;resizable=0;points=[];autosize=1;strokeColor=none;fillColor=none;" vertex="1" parent="1">
          <mxGeometry x="505" y="218" width="30" height="30" as="geometry" />
        </mxCell>
        <mxCell id="K63849EDpW4qTDiHlSB1-77" value="m" style="text;html=1;align=center;verticalAlign=middle;resizable=0;points=[];autosize=1;strokeColor=none;fillColor=none;" vertex="1" parent="1">
          <mxGeometry x="405" y="358" width="30" height="30" as="geometry" />
        </mxCell>
        <mxCell id="K63849EDpW4qTDiHlSB1-78" value="1" style="text;html=1;align=center;verticalAlign=middle;resizable=0;points=[];autosize=1;strokeColor=none;fillColor=none;" vertex="1" parent="1">
          <mxGeometry x="305" y="458" width="30" height="30" as="geometry" />
        </mxCell>
        <mxCell id="K63849EDpW4qTDiHlSB1-79" value="Tag" style="swimlane;childLayout=stackLayout;horizontal=1;startSize=50;horizontalStack=0;rounded=1;fontSize=14;fontStyle=0;strokeWidth=2;resizeParent=0;resizeLast=1;shadow=0;dashed=0;align=center;arcSize=4;whiteSpace=wrap;html=1;" vertex="1" parent="1">
          <mxGeometry x="100" y="780" width="200" height="150" as="geometry" />
        </mxCell>
        <mxCell id="K63849EDpW4qTDiHlSB1-80" value="&lt;b&gt;&lt;u&gt;tag_id INT NOT NULL (PK)&lt;br&gt;&lt;/u&gt;&lt;/b&gt;&lt;br&gt;label VARCHAR(25) NOT NULL&lt;br&gt;&lt;b&gt;&lt;u&gt;&lt;br&gt;&lt;/u&gt;&lt;/b&gt;" style="align=left;strokeColor=none;fillColor=none;spacingLeft=4;fontSize=12;verticalAlign=top;resizable=0;rotatable=0;part=1;html=1;shadow=0;" vertex="1" parent="K63849EDpW4qTDiHlSB1-79">
          <mxGeometry y="50" width="200" height="100" as="geometry" />
        </mxCell>
        <mxCell id="K63849EDpW4qTDiHlSB1-81" value="" style="endArrow=none;html=1;rounded=0;exitX=0.5;exitY=1;exitDx=0;exitDy=0;entryX=0.5;entryY=0;entryDx=0;entryDy=0;" edge="1" parent="1" source="K63849EDpW4qTDiHlSB1-37" target="K63849EDpW4qTDiHlSB1-79">
          <mxGeometry relative="1" as="geometry">
            <mxPoint x="460" y="800" as="sourcePoint" />
            <mxPoint x="620" y="800" as="targetPoint" />
          </mxGeometry>
        </mxCell>
        <mxCell id="K63849EDpW4qTDiHlSB1-82" value="n" style="text;html=1;align=center;verticalAlign=middle;resizable=0;points=[];autosize=1;strokeColor=none;fillColor=none;" vertex="1" parent="1">
          <mxGeometry x="205" y="678" width="30" height="30" as="geometry" />
        </mxCell>
        <mxCell id="K63849EDpW4qTDiHlSB1-83" value="m" style="text;html=1;align=center;verticalAlign=middle;resizable=0;points=[];autosize=1;strokeColor=none;fillColor=none;" vertex="1" parent="1">
          <mxGeometry x="205" y="748" width="30" height="30" as="geometry" />
        </mxCell>
      </root>
    </mxGraphModel>
  </diagram>
</mxfile>
